SplineFontDB: 3.2
FontName: Untitled2
FullName: Untitled2
FamilyName: Untitled2
Weight: Regular
Copyright: Copyright (c) 2021, sergei
UComments: "2021-7-9: Created with FontForge (http://fontforge.org)"
Version: 001.000
ItalicAngle: 0
UnderlinePosition: -102.4
UnderlineWidth: 51.2
Ascent: 819
Descent: 205
InvalidEm: 0
LayerCount: 2
Layer: 0 0 "Back" 1
Layer: 1 0 "Fore" 0
XUID: [1021 386 1253518015 14269954]
StyleMap: 0x0000
FSType: 0
OS2Version: 0
OS2_WeightWidthSlopeOnly: 0
OS2_UseTypoMetrics: 1
CreationTime: 1625798303
ModificationTime: 1625804172
OS2TypoAscent: 0
OS2TypoAOffset: 1
OS2TypoDescent: 0
OS2TypoDOffset: 1
OS2TypoLinegap: 92
OS2WinAscent: 0
OS2WinAOffset: 1
OS2WinDescent: 0
OS2WinDOffset: 1
HheadAscent: 0
HheadAOffset: 1
HheadDescent: 0
HheadDOffset: 1
MarkAttachClasses: 1
DEI: 91125
Encoding: ISO8859-1
UnicodeInterp: none
NameList: AGL For New Fonts
DisplaySize: -48
AntiAlias: 1
FitToEm: 0
WinInfo: 0 38 13
BeginPrivate: 0
EndPrivate
Grid
513 1331 m 0
 513 -717 l 1024
-1024 307 m 0
 2048 307 l 1024
EndSplineSet
AnchorClass2: "123""" 
BeginChars: 256 26

StartChar: A
Encoding: 65 65 0
Width: 1000
VWidth: 0
Flags: HW
HStem: 284 46<487.695 535.799>
VStem: 487.687 48.1201<284.065 329.935>
AnchorPoint: "123" 511.748 307 basechar 0
LayerCount: 2
Fore
SplineSet
487.84375 307 m 0
 487.84375 320 498.857421875 330 511.874023438 330 c 0
 524.889648438 330 535.903320312 320 535.903320312 307 c 0
 535.903320312 294 524.889648438 284 511.874023438 284 c 0
 498.857421875 284 487.84375 294 487.84375 307 c 0
EndSplineSet
EndChar

StartChar: B
Encoding: 66 66 1
Width: 1024
VWidth: 0
Flags: W
HStem: 157.503 298.995
VStem: 509.08 7.2998<157.503 357.222>
LayerCount: 2
Fore
SplineSet
512.291992188 456.498046875 m 5
 530.978515625 339.997070312 l 5
 516.379882812 357.221679688 l 5
 516.379882812 157.502929688 l 5
 509.080078125 157.502929688 l 5
 509.080078125 357.221679688 l 5
 493.021484375 339.120117188 l 5
 512.291992188 456.498046875 l 5
EndSplineSet
Validated: 524289
EndChar

StartChar: Z
Encoding: 90 90 2
Width: 1024
VWidth: 0
Flags: W
VStem: 502 25<-205 479>
LayerCount: 2
Fore
SplineSet
513 819 m 5
 577 420 l 5
 527 479 l 5
 527 -205 l 5
 502 -205 l 5
 502 479 l 5
 447 417 l 5
 513 819 l 5
EndSplineSet
Validated: 1
EndChar

StartChar: M
Encoding: 77 77 3
Width: 1024
VWidth: 0
Flags: W
HStem: 549.831 20G<509.228 515.72>
VStem: 506.867 12.832<44.1699 395.295>
LayerCount: 2
Fore
SplineSet
512.51171875 569.831054688 m 5
 545.3671875 365.008789062 l 5
 519.69921875 395.294921875 l 5
 519.69921875 44.169921875 l 5
 506.8671875 44.169921875 l 5
 506.8671875 395.294921875 l 5
 478.6328125 363.46875 l 5
 512.51171875 569.831054688 l 5
EndSplineSet
Validated: 524289
EndChar

StartChar: Y
Encoding: 89 89 4
Width: 1024
VWidth: 0
Flags: W
VStem: 502.5 23.75<-179.4 470.4>
LayerCount: 2
Fore
SplineSet
512.950195312 793.400390625 m 5
 573.75 414.349609375 l 5
 526.25 470.400390625 l 5
 526.25 -179.400390625 l 5
 502.5 -179.400390625 l 5
 502.5 470.400390625 l 5
 450.25 411.5 l 5
 512.950195312 793.400390625 l 5
EndSplineSet
Validated: 524289
EndChar

StartChar: X
Encoding: 88 88 5
Width: 1024
VWidth: 0
Flags: W
VStem: 502.975 22.5625<-155.08 462.23>
LayerCount: 2
Fore
SplineSet
512.90234375 769.080078125 m 5
 570.662109375 408.982421875 l 5
 525.537109375 462.23046875 l 5
 525.537109375 -155.080078125 l 5
 502.974609375 -155.080078125 l 5
 502.974609375 462.23046875 l 5
 453.337890625 406.275390625 l 5
 512.90234375 769.080078125 l 5
EndSplineSet
Validated: 524289
EndChar

StartChar: W
Encoding: 87 87 6
Width: 1024
VWidth: 0
Flags: W
VStem: 503.426 21.4346<-131.976 454.469>
LayerCount: 2
Fore
SplineSet
512.857421875 745.9765625 m 5
 567.728515625 403.8828125 l 5
 524.860351562 454.46875 l 5
 524.860351562 -131.975585938 l 5
 503.42578125 -131.975585938 l 5
 503.42578125 454.46875 l 5
 456.271484375 401.311523438 l 5
 512.857421875 745.9765625 l 5
EndSplineSet
Validated: 524289
EndChar

StartChar: V
Encoding: 86 86 7
Width: 1024
VWidth: 0
Flags: W
VStem: 503.854 20.3633<-110.026 447.096>
LayerCount: 2
Fore
SplineSet
512.814453125 724.02734375 m 5
 564.942382812 399.0390625 l 5
 524.217773438 447.095703125 l 5
 524.217773438 -110.026367188 l 5
 503.854492188 -110.026367188 l 5
 503.854492188 447.095703125 l 5
 459.057617188 396.595703125 l 5
 512.814453125 724.02734375 l 5
EndSplineSet
Validated: 524289
EndChar

StartChar: U
Encoding: 85 85 8
Width: 1024
VWidth: 0
Flags: W
VStem: 504.262 19.3447<-89.1748 440.091>
LayerCount: 2
Fore
SplineSet
512.7734375 703.17578125 m 5
 562.294921875 394.4375 l 5
 523.606445312 440.090820312 l 5
 523.606445312 -89.1748046875 l 5
 504.26171875 -89.1748046875 l 5
 504.26171875 440.090820312 l 5
 461.705078125 392.116210938 l 5
 512.7734375 703.17578125 l 5
EndSplineSet
Validated: 524289
EndChar

StartChar: T
Encoding: 84 84 9
Width: 1024
VWidth: 0
Flags: W
VStem: 504.648 18.3779<-69.3662 433.437>
LayerCount: 2
Fore
SplineSet
512.734375 683.3671875 m 5
 559.780273438 390.065429688 l 5
 523.026367188 433.436523438 l 5
 523.026367188 -69.3662109375 l 5
 504.6484375 -69.3662109375 l 5
 504.6484375 433.436523438 l 5
 464.219726562 387.860351562 l 5
 512.734375 683.3671875 l 5
EndSplineSet
Validated: 524289
EndChar

StartChar: S
Encoding: 83 83 10
Width: 1024
VWidth: 0
Flags: W
VStem: 505.016 17.459<-50.5479 427.114>
LayerCount: 2
Fore
SplineSet
512.697265625 664.548828125 m 5
 557.391601562 385.912109375 l 5
 522.474609375 427.114257812 l 5
 522.474609375 -50.5478515625 l 5
 505.015625 -50.5478515625 l 5
 505.015625 427.114257812 l 5
 466.608398438 383.817382812 l 5
 512.697265625 664.548828125 l 5
EndSplineSet
Validated: 524289
EndChar

StartChar: R
Encoding: 82 82 11
Width: 1024
VWidth: 0
Flags: W
VStem: 505.365 16.5859<-32.6709 421.108>
LayerCount: 2
Fore
SplineSet
512.662109375 646.671875 m 5
 555.122070312 381.966796875 l 5
 521.951171875 421.108398438 l 5
 521.951171875 -32.6708984375 l 5
 505.365234375 -32.6708984375 l 5
 505.365234375 421.108398438 l 5
 468.877929688 379.9765625 l 5
 512.662109375 646.671875 l 5
EndSplineSet
Validated: 524289
EndChar

StartChar: Q
Encoding: 81 81 12
Width: 1024
VWidth: 0
Flags: W
VStem: 505.697 15.7559<-15.6875 415.403>
LayerCount: 2
Fore
SplineSet
512.62890625 629.688476562 m 5
 552.965820312 378.21875 l 5
 521.453125 415.403320312 l 5
 521.453125 -15.6875 l 5
 505.697265625 -15.6875 l 5
 505.697265625 415.403320312 l 5
 471.034179688 376.328125 l 5
 512.62890625 629.688476562 l 5
EndSplineSet
Validated: 524289
EndChar

StartChar: P
Encoding: 80 80 13
Width: 1024
VWidth: 0
Flags: W
VStem: 506.013 14.9678<0.447266 409.983>
LayerCount: 2
Fore
SplineSet
512.59765625 613.553710938 m 5
 550.91796875 374.658203125 l 5
 520.98046875 409.983398438 l 5
 520.98046875 0.447265625 l 5
 506.012695312 0.447265625 l 5
 506.012695312 409.983398438 l 5
 473.08203125 372.861328125 l 5
 512.59765625 613.553710938 l 5
EndSplineSet
Validated: 524289
EndChar

StartChar: O
Encoding: 79 79 14
Width: 1024
VWidth: 0
Flags: W
HStem: 578.226 20G<509.284 515.776>
VStem: 506.312 14.2188<15.7754 404.834>
LayerCount: 2
Fore
SplineSet
512.567382812 598.225585938 m 5
 548.971679688 371.275390625 l 5
 520.53125 404.833984375 l 5
 520.53125 15.775390625 l 5
 506.3125 15.775390625 l 5
 506.3125 404.833984375 l 5
 475.028320312 369.568359375 l 5
 512.567382812 598.225585938 l 5
EndSplineSet
Validated: 524289
EndChar

StartChar: N
Encoding: 78 78 15
Width: 1024
VWidth: 0
Flags: W
HStem: 563.664 20G<509.256 515.747>
VStem: 506.597 13.5078<30.3369 399.942>
LayerCount: 2
Fore
SplineSet
512.5390625 583.6640625 m 5
 547.123046875 368.061523438 l 5
 520.104492188 399.942382812 l 5
 520.104492188 30.3369140625 l 5
 506.596679688 30.3369140625 l 5
 506.596679688 399.942382812 l 5
 476.876953125 366.440429688 l 5
 512.5390625 583.6640625 l 5
EndSplineSet
Validated: 524289
EndChar

StartChar: L
Encoding: 76 76 16
Width: 1024
VWidth: 0
Flags: W
HStem: 536.689 20G<509.203 515.695>
VStem: 507.124 12.1904<57.3115 390.88>
LayerCount: 2
Fore
SplineSet
512.486328125 556.689453125 m 5
 543.69921875 362.108398438 l 5
 519.314453125 390.879882812 l 5
 519.314453125 57.3115234375 l 5
 507.124023438 57.3115234375 l 5
 507.124023438 390.879882812 l 5
 480.30078125 360.645507812 l 5
 512.486328125 556.689453125 l 5
EndSplineSet
Validated: 524289
EndChar

StartChar: K
Encoding: 75 75 17
Width: 1024
VWidth: 0
Flags: W
HStem: 524.205 20G<509.178 515.67>
VStem: 507.368 11.5811<69.7959 386.686>
LayerCount: 2
Fore
SplineSet
512.461914062 544.205078125 m 5
 542.114257812 359.352539062 l 5
 518.94921875 386.685546875 l 5
 518.94921875 69.7958984375 l 5
 507.368164062 69.7958984375 l 5
 507.368164062 386.685546875 l 5
 481.885742188 357.962890625 l 5
 512.461914062 544.205078125 l 5
EndSplineSet
Validated: 524289
EndChar

StartChar: J
Encoding: 74 74 18
Width: 1024
VWidth: 0
Flags: W
HStem: 512.345 20G<509.155 515.647>
VStem: 507.6 11.002<81.6562 382.701>
LayerCount: 2
Fore
SplineSet
512.438476562 532.344726562 m 5
 540.608398438 356.735351562 l 5
 518.6015625 382.701171875 l 5
 518.6015625 81.65625 l 5
 507.599609375 81.65625 l 5
 507.599609375 382.701171875 l 5
 483.391601562 355.415039062 l 5
 512.438476562 532.344726562 l 5
EndSplineSet
Validated: 524289
EndChar

StartChar: I
Encoding: 73 73 19
Width: 1024
VWidth: 0
Flags: W
HStem: 92.9238 21G<507.819 518.271> 501.077 20G<509.134 515.625>
VStem: 507.819 10.4521<92.9238 378.916>
LayerCount: 2
Fore
SplineSet
512.416992188 521.077148438 m 5
 539.177734375 354.249023438 l 5
 518.271484375 378.916015625 l 5
 518.271484375 92.923828125 l 5
 507.819335938 92.923828125 l 5
 507.819335938 378.916015625 l 5
 484.822265625 352.994140625 l 5
 512.416992188 521.077148438 l 5
EndSplineSet
Validated: 524289
EndChar

StartChar: H
Encoding: 72 72 20
Width: 1024
VWidth: 0
Flags: W
VStem: 508.028 9.92969<103.628 375.32>
LayerCount: 2
Fore
SplineSet
512.396484375 510.373046875 m 5
 537.818359375 351.88671875 l 5
 517.958007812 375.3203125 l 5
 517.958007812 103.627929688 l 5
 508.028320312 103.627929688 l 5
 508.028320312 375.3203125 l 5
 486.181640625 350.694335938 l 5
 512.396484375 510.373046875 l 5
EndSplineSet
Validated: 524289
EndChar

StartChar: G
Encoding: 71 71 21
Width: 1024
VWidth: 0
Flags: W
VStem: 508.227 9.43359<113.797 371.904>
LayerCount: 2
Fore
SplineSet
512.376953125 500.204101562 m 5
 536.52734375 349.642578125 l 5
 517.66015625 371.904296875 l 5
 517.66015625 113.796875 l 5
 508.2265625 113.796875 l 5
 508.2265625 371.904296875 l 5
 487.47265625 348.509765625 l 5
 512.376953125 500.204101562 l 5
EndSplineSet
Validated: 524289
EndChar

StartChar: F
Encoding: 70 70 22
Width: 1024
VWidth: 0
Flags: W
VStem: 508.415 8.96191<123.457 368.659>
LayerCount: 2
Fore
SplineSet
512.358398438 490.543945312 m 5
 535.30078125 347.510742188 l 5
 517.376953125 368.659179688 l 5
 517.376953125 123.45703125 l 5
 508.415039062 123.45703125 l 5
 508.415039062 368.659179688 l 5
 488.69921875 346.434570312 l 5
 512.358398438 490.543945312 l 5
EndSplineSet
Validated: 524289
EndChar

StartChar: E
Encoding: 69 69 23
Width: 1024
VWidth: 0
Flags: W
VStem: 508.595 8.51367<132.634 365.576>
LayerCount: 2
Fore
SplineSet
512.340820312 481.3671875 m 5
 534.135742188 345.485351562 l 5
 517.108398438 365.576171875 l 5
 517.108398438 132.633789062 l 5
 508.594726562 132.633789062 l 5
 508.594726562 365.576171875 l 5
 489.864257812 344.462890625 l 5
 512.340820312 481.3671875 l 5
EndSplineSet
Validated: 524289
EndChar

StartChar: D
Encoding: 68 68 24
Width: 1024
VWidth: 0
Flags: W
HStem: 141.353 331.296
VStem: 508.765 8.08789<141.353 362.647>
LayerCount: 2
Fore
SplineSet
512.32421875 472.6484375 m 5
 533.029296875 343.561523438 l 5
 516.852539062 362.647460938 l 5
 516.852539062 141.352539062 l 5
 508.764648438 141.352539062 l 5
 508.764648438 362.647460938 l 5
 490.970703125 342.58984375 l 5
 512.32421875 472.6484375 l 5
EndSplineSet
Validated: 524289
EndChar

StartChar: C
Encoding: 67 67 25
Width: 1024
VWidth: 0
Flags: W
HStem: 149.635 314.731
VStem: 508.927 7.68359<149.635 359.865>
LayerCount: 2
Fore
SplineSet
512.307617188 464.366210938 m 5
 531.977539062 341.733398438 l 5
 516.610351562 359.865234375 l 5
 516.610351562 149.634765625 l 5
 508.926757812 149.634765625 l 5
 508.926757812 359.865234375 l 5
 492.022460938 340.810546875 l 5
 512.307617188 464.366210938 l 5
EndSplineSet
Validated: 524289
EndChar
